HIERARCHY
ROOT Hips
{
	OFFSET -14.64140 90.27770 -84.91600
	CHANNELS 6 Xposition Yposition Zposition Zrotation Xrotation Yrotation
	JOINT Spine
	{
		OFFSET 0.00000 13.20850 -1.60436
		CHANNELS 3 Zrotation Xrotation Yrotation
		JOINT Spine1
		{
			OFFSET 0.00000 8.61716 0.00000
			CHANNELS 3 Zrotation Xrotation Yrotation
			JOINT Spine2
			{
				OFFSET 0.00000 8.61717 0.00000
				CHANNELS 3 Zrotation Xrotation Yrotation
				JOINT Spine3
				{
					OFFSET 0.00000 8.61717 0.00000
					CHANNELS 3 Zrotation Xrotation Yrotation
					JOINT Neck
					{
						OFFSET 0.00000 11.07920 1.10792
						CHANNELS 3 Zrotation Xrotation Yrotation
						JOINT Neck1
						{
							OFFSET 0.00000 7.08032 0.00000
							CHANNELS 3 Zrotation Xrotation Yrotation
							JOINT Head
							{
								OFFSET 0.00000 7.08031 0.00000
								CHANNELS 3 Zrotation Xrotation Yrotation
								End site
								{
									OFFSET 0.00000 0.00000 0.00000
								}
							}
						}
					}
					JOINT RightShoulder
					{
						OFFSET -0.01000 7.91373 5.19711
						CHANNELS 3 Zrotation Xrotation Yrotation
						JOINT RightArm
						{
							OFFSET -18.41580 0.00000 0.00000
							CHANNELS 3 Zrotation Xrotation Yrotation
							JOINT RightForeArm
							{
								OFFSET -29.11090 0.00000 0.00000
								CHANNELS 3 Zrotation Xrotation Yrotation
								JOINT RightHand
								{
									OFFSET -24.65040 0.00000 0.00000
									CHANNELS 3 Zrotation Xrotation Yrotation
									JOINT RightHandThumb1
									{
										OFFSET -5.35114 -0.85590 3.97906
										CHANNELS 3 Zrotation Xrotation Yrotation
										JOINT RightHandThumb2
										{
											OFFSET -4.52789 0.00000 0.00000
											CHANNELS 3 Zrotation Xrotation Yrotation
											JOINT RightHandThumb3
											{
												OFFSET -2.46976 0.00000 0.00000
												CHANNELS 3 Zrotation Xrotation Yrotation
												End site
												{
													OFFSET 0.00000 0.00000 0.00000
												}
											}
										}
									}
									JOINT RightHandIndex1
									{
										OFFSET -14.26970 0.00000 2.88139
										CHANNELS 3 Zrotation Xrotation Yrotation
										JOINT RightHandIndex2
										{
											OFFSET -5.48836 0.00000 0.00000
											CHANNELS 3 Zrotation Xrotation Yrotation
											JOINT RightHandIndex3
											{
												OFFSET -3.01859 0.00000 0.00000
												CHANNELS 3 Zrotation Xrotation Yrotation
												End site
												{
													OFFSET 0.00000 0.00000 0.00000
												}
											}
										}
									}
									JOINT RightHandMiddle1
									{
										OFFSET -14.26970 0.00000 -0.09147
										CHANNELS 3 Zrotation Xrotation Yrotation
										JOINT RightHandMiddle2
										{
											OFFSET -6.17441 0.00000 0.00000
											CHANNELS 3 Zrotation Xrotation Yrotation
											JOINT RightHandMiddle3
											{
												OFFSET -3.56743 0.00000 0.00000
												CHANNELS 3 Zrotation Xrotation Yrotation
												End site
												{
													OFFSET 0.00000 0.00000 0.00000
												}
											}
										}
									}
									JOINT RightHandRing1
									{
										OFFSET -12.69180 0.00000 -3.06433
										CHANNELS 3 Zrotation Xrotation Yrotation
										JOINT RightHandRing2
										{
											OFFSET -5.62556 0.00000 0.00000
											CHANNELS 3 Zrotation Xrotation Yrotation
											JOINT RightHandRing3
											{
												OFFSET -3.56744 0.00000 0.00000
												CHANNELS 3 Zrotation Xrotation Yrotation
												End site
												{
													OFFSET 0.00000 0.00000 0.00000
												}
											}
										}
									}
									JOINT RightHandPinky1
									{
										OFFSET -11.11390 0.00000 -6.03719
										CHANNELS 3 Zrotation Xrotation Yrotation
										JOINT RightHandPinky2
										{
											OFFSET -4.52789 0.00000 0.00000
											CHANNELS 3 Zrotation Xrotation Yrotation
											JOINT RightHandPinky3
											{
												OFFSET -2.46976 0.00000 0.00000
												CHANNELS 3 Zrotation Xrotation Yrotation
												End site
												{
													OFFSET 0.00000 0.00000 0.00000
												}
											}
										}
									}
								}
							}
						}
					}
					JOINT LeftShoulder
					{
						OFFSET 0.01000 7.91373 5.19711
						CHANNELS 3 Zrotation Xrotation Yrotation
						JOINT LeftArm
						{
							OFFSET 18.41580 0.00000 0.00000
							CHANNELS 3 Zrotation Xrotation Yrotation
							JOINT LeftForeArm
							{
								OFFSET 29.11090 0.00000 0.00000
								CHANNELS 3 Zrotation Xrotation Yrotation
								JOINT LeftHand
								{
									OFFSET 24.65040 0.00000 0.00000
									CHANNELS 3 Zrotation Xrotation Yrotation
									JOINT LeftHandThumb1
									{
										OFFSET 5.35114 -0.85590 3.97906
										CHANNELS 3 Zrotation Xrotation Yrotation
										JOINT LeftHandThumb2
										{
											OFFSET 4.52789 0.00000 0.00000
											CHANNELS 3 Zrotation Xrotation Yrotation
											JOINT LeftHandThumb3
											{
												OFFSET 2.46977 0.00000 0.00000
												CHANNELS 3 Zrotation Xrotation Yrotation
												End site
												{
													OFFSET 0.00000 0.00000 0.00000
												}
											}
										}
									}
									JOINT LeftHandIndex1
									{
										OFFSET 14.26970 0.00000 2.88139
										CHANNELS 3 Zrotation Xrotation Yrotation
										JOINT LeftHandIndex2
										{
											OFFSET 5.48836 0.00000 0.00000
											CHANNELS 3 Zrotation Xrotation Yrotation
											JOINT LeftHandIndex3
											{
												OFFSET 3.01859 0.00000 0.00000
												CHANNELS 3 Zrotation Xrotation Yrotation
												End site
												{
													OFFSET 0.00000 0.00000 0.00000
												}
											}
										}
									}
									JOINT LeftHandMiddle1
									{
										OFFSET 14.26970 0.00000 -0.09147
										CHANNELS 3 Zrotation Xrotation Yrotation
										JOINT LeftHandMiddle2
										{
											OFFSET 6.17440 0.00000 0.00000
											CHANNELS 3 Zrotation Xrotation Yrotation
											JOINT LeftHandMiddle3
											{
												OFFSET 3.56744 0.00000 0.00000
												CHANNELS 3 Zrotation Xrotation Yrotation
												End site
												{
													OFFSET 0.00000 0.00000 0.00000
												}
											}
										}
									}
									JOINT LeftHandRing1
									{
										OFFSET 12.69180 0.00000 -3.06433
										CHANNELS 3 Zrotation Xrotation Yrotation
										JOINT LeftHandRing2
										{
											OFFSET 5.62556 0.00000 0.00000
											CHANNELS 3 Zrotation Xrotation Yrotation
											JOINT LeftHandRing3
											{
												OFFSET 3.56744 0.00000 0.00000
												CHANNELS 3 Zrotation Xrotation Yrotation
												End site
												{
													OFFSET 0.00000 0.00000 0.00000
												}
											}
										}
									}
									JOINT LeftHandPinky1
									{
										OFFSET 11.11390 0.00000 -6.03719
										CHANNELS 3 Zrotation Xrotation Yrotation
										JOINT LeftHandPinky2
										{
											OFFSET 4.52789 0.00000 0.00000
											CHANNELS 3 Zrotation Xrotation Yrotation
											JOINT LeftHandPinky3
											{
												OFFSET 2.46976 0.00000 0.00000
												CHANNELS 3 Zrotation Xrotation Yrotation
												End site
												{
													OFFSET 0.00000 0.00000 0.00000
												}
											}
										}
									}
								}
							}
						}
					}
					JOINT pCube4
					{
						OFFSET 0.00000 10.91090 1.10792
						CHANNELS 3 Zrotation Xrotation Yrotation
						End site
						{
							OFFSET 0.00000 0.00000 0.00000
						}
					}
				}
			}
		}
	}
	JOINT RightUpLeg
	{
		OFFSET -9.98441 0.00000 0.00000
		CHANNELS 3 Zrotation Xrotation Yrotation
		JOINT RightLeg
		{
			OFFSET 0.00000 -42.11790 0.00000
			CHANNELS 3 Zrotation Xrotation Yrotation
			JOINT RightFoot
			{
				OFFSET 0.00000 -45.00020 -0.00001
				CHANNELS 3 Zrotation Xrotation Yrotation
				JOINT RightForeFoot
				{
					OFFSET 0.00000 -3.74820 0.00000
					CHANNELS 3 Zrotation Xrotation Yrotation
					JOINT RightToeBase
					{
						OFFSET 0.00000 0.06325 14.43120
						CHANNELS 3 Zrotation Xrotation Yrotation
						End site
						{
							OFFSET 0.00000 0.00000 0.00000
						}
					}
				}
			}
		}
	}
	JOINT LeftUpLeg
	{
		OFFSET 9.98441 0.00000 0.00000
		CHANNELS 3 Zrotation Xrotation Yrotation
		JOINT LeftLeg
		{
			OFFSET 0.00000 -42.11800 0.00000
			CHANNELS 3 Zrotation Xrotation Yrotation
			JOINT LeftFoot
			{
				OFFSET 0.00000 -45.00070 0.00000
				CHANNELS 3 Zrotation Xrotation Yrotation
				JOINT LeftForeFoot
				{
					OFFSET 0.00000 -3.74824 0.00000
					CHANNELS 3 Zrotation Xrotation Yrotation
					JOINT LeftToeBase
					{
						OFFSET 0.00000 0.06325 14.43110
						CHANNELS 3 Zrotation Xrotation Yrotation
						End site
						{
							OFFSET 0.00000 0.00000 0.00000
						}
					}
				}
			}
		}
	}
}
MOTION
Frames: 4
Frame Time: 0.050000
-0.001718435110936606 -0.018629575078600004 0.03172741643305473 -0.0017647525896988783 0.010522313763881868 0.049625484759406535 4.462142162437727 3.026572282691813 -2.0858607915450422 -0.7631849500486133 3.5499413177932735 0.340793611314441 -0.6468373877408526 -1.3190093330394146 0.6726562015257648 -0.3435970280795443 -0.5122620551035416 -0.2850615781281147 0.24899692074935206 13.323813074141642 -2.0146756868391074 0.3938085739612255 -0.025823644525248622 -4.641988765252629 1.131202719592289 -15.992906359381275 -0.36965908211721793 -11.131089379676538 3.718275152007228 -17.12481018630454 78.45314991254828 -4.12996437077794 19.91548863535138 11.523320156844466 3.8827403367508433 80.36791432645465 13.16572352063447 -0.3012279691022053 -1.5724087745013309 4.567660898859231 -0.14625415329574448 -1.6335215123457199 -0.014336156859717807 -0.001356073638814173 -56.26008680170537 -0.009667750762254967 -0.011184947807609584 -56.265707625835034 -38.7951306060993 -0.02967556790465479 -0.011331964438151904 -0.042889303890494355 -0.013994139890341145 0.047231549218129 0.003030842227426859 -0.03795664378946501 -0.0180507878618715 -36.72113938605337 0.01736822913251129 -0.029095170104914247 0.045306716230230734 -0.0005760190551000154 0.0029965508736387756 -0.0023344552686604793 -0.04620792785624811 0.03791005980277547 -19.800294031007628 -0.005844633331943531 -0.042171213788271725 0.010853047500405374 0.047450263181651846 0.00013339340457033995 -0.03835699919103483 0.04699122987148031 -0.017184296267501245 24.02029951657545 0.017323275354378047 -0.007978168255491523 28.858434800228757 0.024208539897172407 0.02411082064581555 28.863722584468857 -0.006033526917721201 0.04597957651506544 11.095945447719963 2.6293191061125354 14.517063767449685 -69.96624756208342 12.33165516319032 -22.88837469493939 -5.228703816361658 -1.3993992929748755 -84.34767089065394 -15.351643687929979 -0.4316811205782413 -2.1349682082950516 -0.5122970059329592 0.08414648790112772 -8.168768754156774 0.005887761199043213 -0.048744811090536605 44.553781973170345 -0.04181183631291805 0.011698122785427043 44.592898214776696 12.45764057024257 -0.04066456606955882 -0.005667752647004126 0.04111304927265443 0.0013801868971629464 0.043054107244522744 -0.014384667048485766 -0.04986101090505436 0.02108097698898382 11.126263915032347 -0.022198585855236076 0.024505832012493192 0.0007230158877335846 0.003490205088161152 0.008767153514051763 0.021406628455399358 0.03448081443048482 0.01953852420071893 4.749984533657098 0.018451116555391143 0.020230030394812245 -0.023749918283228807 -0.034100509130549864 -0.026860929928711627 -0.012808207470966358 0.03139394002857776 0.032361013091818484 -5.577498989390714 0.025921738153782962 0.00628308748535063 -6.750883775305507 0.006703571144238277 -0.003598131237766846 -6.716310658205417 -0.03247971283971013 0.03565428551208816 0.01799907841995364 -0.04599032335985525 -0.02724377558203919 8.032572910559818 3.476012842939144 -19.204516276968935 0.036529123040766005 10.434808501568835 -0.008427648690422607 -5.601432832437851 -15.68532423025932 3.1943473948939953 -0.002334439204381103 0.02637258152831458 0.02891263551879758 0.04426788037445354 4.673461789410837 -0.02388087448906884 12.476601157299505 -8.279757037524922 6.84408133988608 0.01596685981059897 46.40196104058007 0.024762839659582925 -4.3553374688771385 -14.709831532767168 -3.874282504205977 -0.034042005805184475 0.048759521563133235 0.03623558228998259 0.018101746886792027 -10.725975121311475 -0.0335094904681567 
0.003987294798954492 0.025858168532464473 0.009626823625206431 0.027209856687264583 0.04292270571092964 -0.011511081591265125 4.537002876445214 2.796752680092024 -2.143326144347508 -0.7645230621767161 3.504552550069415 0.3782582395912383 -0.6658576643348274 -1.3880164403458426 0.6735490843184728 -0.5105950442397061 -0.5444228984278188 -0.3197573209078403 0.2116127814027992 13.69105779756842 -1.7302012436268235 0.4653602542438121 0.17321948582797195 -3.862071921339041 1.0156340949302363 -15.690918639421186 -0.35963521861719483 -11.747398348156622 3.8950259571408883 -16.8736359459054 78.71079610693978 -5.10116328906643 24.254645630958116 13.519372699589255 3.2606503258470463 84.6647070566582 12.367739137030584 -0.32768233862591006 -1.5079247916402412 4.5107036578325745 -0.10482983158419512 -1.6101391426169054 0.005051762610885371 -0.008965267530580941 -56.22035147581423 0.01586516661423031 0.04210007476012124 -56.215505424349445 -38.73440798893375 0.030078874748779297 -0.04380466526183543 0.003652808285141738 -0.04311892331055084 0.016825549200852667 -0.02998782966055462 -0.03455031924437259 0.03211964629460602 -36.71964007311956 0.004599332273665332 0.025272280870930988 -0.031991701169731455 0.028384911483265163 -0.032337525474272315 -0.029683936603834428 -0.03214707383396035 0.006671307725111952 -19.805327151598473 0.0009603722556632318 -0.014446487035788689 -0.013379234638575817 -0.016522925638606727 -0.008830137422058376 -0.0006012763741116357 -0.022891488456432466 0.010738548076075303 24.070063693781954 0.040737914603326486 0.005495267354933643 28.820795567118093 -0.006384459676616755 -0.021047644602264975 28.86598339666309 0.0015728919781026933 -0.020978883091878443 11.908693059517484 2.747810890779541 14.366074843926883 -70.02310428205595 12.056007617825115 -27.52845854869311 -3.9696454125300447 -3.1767117270241143 -89.35934907784178 -13.51822793052914 0.13572432176116067 -3.1912335103855094 -0.46656030293690887 0.028155966362799364 -8.154348938990545 -0.013358483571654615 0.01308199552628399 44.5761180712143 -4.974679182114851e-05 0.0008060478848272242 44.51886759561927 12.456223518338073 -0.03729703760519854 0.022985010397240022 0.011323915465064456 0.014084365726501031 0.035214098927331634 -0.00946057261744411 0.02183549027623808 -0.017870276314485713 11.116144099702076 0.04689119032503398 -0.04245280783558332 0.04640800943580177 -0.009392367506725658 -0.012347303697003587 -0.042464419409795305 -0.030390250828631466 -0.01601903318105564 4.7486922132995675 -0.006364164919410082 0.004963187423143672 -0.008943759918223729 -0.0005102352234996975 0.041245695631741706 0.03366648593937027 0.008637222220501912 0.012542196787026293 -5.555697996001627 -0.018948424969459855 -0.043484978953196265 -6.748343011640199 -0.030024172615300434 -0.034161484302323186 -6.707150606619417 -0.01882442600869927 -0.011545805163422442 0.031215486892271473 -0.03400044622129569 0.003624090691319155 8.069505997559581 3.4581077770727076 -19.200935329934627 -0.011974371450266728 10.362196918670872 0.03903048430423914 -5.609332630156188 -15.70287955114322 3.153341753002426 -0.025515794274676516 -0.021129084312936808 0.007710428953701464 -0.026442199289853287 4.711150980498581 0.017490508521759963 12.491494955301723 -8.241075876462903 6.904255116888049 -0.004436425300198881 46.348667251613065 0.04824436458652168 -4.351588404799547 -14.751287637768968 -3.879131888080289 -0.008911871719127187 0.018344464690046247 0.02935306183327029 -0.027006422230236245 -10.755024529033694 -0.021653400638211348 
-0.04341828354221307 -0.04077908902783472 -0.04218795348116449 -0.042656006952714216 0.04062131346295981 0.046386542958698984 4.596660276261744 2.611364994665282 -2.1287540278536436 -0.7038506499744339 3.488862825960092 0.3682333859798219 -0.6844957007826438 -1.4454437143247352 0.5352814266352858 -0.5509967236449349 -0.5570475164366868 -0.3401906641323386 0.04407410696429226 13.96931526794867 -1.4884788269475377 0.4861228731073406 0.3804287067583992 -3.053748341595739 0.9741624888044665 -15.460352817429191 -0.24190638126007377 -12.066837192779275 4.013611225516445 -16.57331646907595 78.90089657575194 -5.510183757712892 27.120258586081476 14.153768608416819 2.784627221863795 87.08585227723557 11.690717292326493 -0.27396592940044157 -1.3440655765477452 4.498461055855331 -0.12677819411233038 -1.5461374195162776 0.039156185113451744 0.0029780592707633288 -56.26676166896135 -0.04553447888125298 -0.019402853675867176 -56.234058123398476 -38.79031110712518 0.049900326899696354 0.03192495391259082 0.021688347014343783 0.02562803038224866 -0.03136776071578914 0.013808054196477166 0.016108263723634608 0.016463750503013262 -36.74286363227669 0.01815492193208634 0.04082335680068182 0.03592177897135499 -0.03703317654416564 0.023119106510584884 0.009537560505624015 0.02759174706473268 0.016499524737812316 -19.745313450282328 -0.02182375190532492 0.023152812023194514 -0.023812031436425726 -0.0443719496314518 -0.004540511595391917 -0.011908934684448924 0.03063397134405602 0.005901975168816717 24.049468327203503 -0.03670603198294713 -0.0027438466376824263 28.881863928607338 0.015875184230916762 0.016810547207616062 28.848748591139348 0.03263112061281339 -0.025614264024007842 12.557718594624255 2.895910431547041 14.185909585280031 -70.21506046757939 11.672142963527195 -31.841676295354585 -2.091257295661198 -4.585405126299983 -92.7450588096472 -11.697466262305385 0.9311413365224959 -4.385161557191486 -0.5096379895209171 0.06718240249318952 -8.12225245301306 -0.03371280833001873 0.03538286667245682 44.59082927735673 0.028641076922037448 -0.04934054645316253 44.51964962675443 12.500998130099367 -0.017189864213364523 -0.03190812224440026 -0.046311646582718226 -0.04484060238518751 0.025440128309390974 -0.04852916088373141 0.027167299983828115 0.0011293221167179201 11.057437420276726 -0.021537997371205757 0.006211926290276627 0.011399607402190655 0.022752359310699816 0.011084014573032434 -0.01986772660903779 0.04028246430368423 0.03367348630760319 4.812932642808779 0.037672399342114304 0.02868232378687662 0.005571448470565205 -0.03316204501204233 -0.03206534058093364 -0.0054605240985774696 -0.04791709686655728 -0.007512262598577787 -5.562685864142438 -0.02335752369991617 -0.005361489775371725 -6.716291952671647 0.03694437073828862 0.024150676647097098 -6.681222961960596 -0.048648212299195005 -0.045996997582169984 -0.020155948552866804 -0.021175022847901036 0.042292124139368344 8.065419205504115 3.5162163074095956 -19.218239378282288 0.020866518955566085 10.359447280348187 -0.00010094751529359479 -5.670321219551537 -15.617794684988578 3.184087608399611 -0.019371249352193157 0.043637986460204975 -0.0132779149782471 0.019508313365038964 4.684034686911123 0.011955895021746552 12.41298780963392 -8.240532668648768 6.873987505604618 0.025026402031750265 46.39745237516886 0.023253029522601665 -4.303570403775539 -14.734132247829754 -3.8637291797070517 0.0002783691519263439 -0.003427201249981718 0.035418635717885685 0.04651631099017034 -10.708793075921626 -0.03074294107547669 
0.018164989641313096 -0.007448707137729243 0.002670724217038768 0.0004560937866324151 0.009892695093163971 0.011927688532144296 4.622765929434523 2.4749256375223863 -2.141591132139093 -0.6938408824805835 3.5256462197418976 0.3839779154727338 -0.6680867818930345 -1.4954670463240636 0.37333642217926566 -0.5938047015822516 -0.5277055981804317 -0.30707742817214295 -0.03728095950448433 14.235725737378463 -1.294251514652314 0.49401863818447367 0.5189223519795632 -2.3325343908908036 0.8736470585399434 -15.282165545992873 -0.20861176020964825 -12.18903081204966 4.0704918089021875 -16.346224904394564 79.07352173453503 -4.911738941146079 29.00401840957842 13.373286057810734 2.3670203738872555 88.81535229628172 11.052311071857865 -0.29889665608519084 -0.966523733974948 4.503157426620732 -0.11208589345727644 -1.6417639342306125 0.03922432951359948 -0.010772410913105301 -56.2053666604687 -0.04889431931566359 -0.013999421469688743 -56.254779917170886 -38.77270220753579 -0.03918187488431269 0.04418461579771143 -0.0006385715971803748 -0.016260147629515616 -0.014413728245053227 0.019232638445297295 -0.008052830877808288 -0.03583909456060642 -36.737047844506186 -0.015389938972825546 0.021440177101434397 -0.002263780337687488 -0.03293928914729631 0.025832670850266914 0.0426656552965878 0.013388643479029004 -0.018463125760966936 -19.764268700370717 0.004563342833558704 0.02140167315183544 -0.03262858828576782 -0.006381196154053434 -0.04854768324070145 0.046530186047350035 -0.011518826850402989 -0.019127633799040217 24.087360577223034 0.007006687292379897 0.021816320208861005 28.876329281824354 -0.026952649819106642 0.010574858927352807 28.886556394721715 -0.006546679489238283 0.002762224935680174 13.109330445159431 3.0242733107056035 13.97100601982175 -70.65241876216992 11.81978881576211 -36.22984741871737 0.5027376208608415 -5.856301414371782 -95.1765893901351 -9.97738471460239 2.1520286960211794 -5.590850710910409 -0.435036455041642 0.05489355306510008 -8.10114889088382 -0.005744130431869244 -0.011652569159395635 44.57683631526156 0.001849710603729397 0.0009000804086486421 44.561947396740024 12.463012699064455 -0.04198672920675664 0.026829256440347782 -0.029688898249620607 -0.03891599825876434 -0.012261422687865604 -0.027444945058610868 0.006933553237780163 -0.012532581192616798 11.149642087955824 0.028817134763926992 -0.00690366429043435 -0.03924027616430066 -0.045588995600125255 -0.005956476848110209 0.032533382991048035 0.0334131122860251 0.005337515641043114 4.8108688961416295 -0.013030090231086217 -0.04084138599338645 -0.022115050793658324 0.013073518134531534 0.04298518776506517 0.03630310805055419 0.0398022328950606 0.04181121392682323 -5.624429890297103 -0.00032063897582004075 0.01033031776783751 -6.697048982226773 0.03393775281878782 -0.021428646182814648 -6.7591604191259815 0.0018422406382573432 0.027439580986810323 -0.040322975155848546 0.03175864220575691 -0.04544894343851121 8.030871372475207 3.5383167429282185 -19.21067190995034 0.00608935186209906 10.385616305884769 -0.00550408769185378 -5.578463624862525 -15.625554013483182 3.1510646150447075 -0.0008844837695637961 0.04665295160575427 -0.024790079131940014 0.0011241677758250803 4.706895431405078 -0.019083875360453736 12.424642722187743 -8.221620626177838 6.875309908547187 -0.015104277780790149 46.3954487754065 -0.0207244740412309 -4.3203266198046535 -14.70313924260908 -3.791443544551386 0.014520846467346698 -0.032981469847071954 0.02926658783734438 0.0022447610806068533 -10.767830949133877 0.01114918859508828 
